<?xml version="1.0" ?><svg id="Layer_1_1_" style="enable-background:new 0 0 64 64;" version="1.1" viewBox="0 0 64 64" xml:space="preserve" xmlns="http://www.w3.org/2000/svg" xmlns:xlink="http://www.w3.org/1999/xlink"><g><text style="font-family:'Montserrat-Regular'; font-size:10px;" transform="matrix(1 0 0 1 -174.3398 -117.0002)"/><text transform="matrix(1 0 0 1 -76.9297 -117.0002)"><tspan style="font-family:'Montserrat-Regular'; font-size:10px;" x="0" y="0"/><tspan style="font-family:'Montserrat-Regular'; font-size:10px;" x="6.82" y="0"/><tspan style="font-family:'Montserrat-Regular'; font-size:10px;" x="2.055" y="12"/><tspan style="font-family:'Montserrat-Regular'; font-size:10px;" x="9.115" y="12"/><tspan style="font-family:'Montserrat-Regular'; font-size:10px;" x="16.314" y="12"/></text><text transform="matrix(1 0 0 1 -89.8047 -21.0002)"><tspan style="font-family:'Montserrat-Regular'; font-size:10px;" x="0" y="0"/><tspan style="font-family:'Montserrat-Regular'; font-size:10px;" x="36.31" y="0"/><tspan style="font-family:'Montserrat-Regular'; font-size:10px;" x="43.51" y="0"/></text><text transform="matrix(1 0 0 1 4.7249 -117.0002)"><tspan style="font-family:'Montserrat-Regular'; font-size:10px;" x="0" y="0"/><tspan style="font-family:'Montserrat-Regular'; font-size:10px;" x="19.58" y="0"/><tspan style="font-family:'Montserrat-Regular'; font-size:10px;" x="26.9" y="0"/></text><text transform="matrix(1 0 0 1 103.0654 -117.0002)"><tspan style="font-family:'Montserrat-Regular'; font-size:10px;" x="0" y="0"/><tspan style="font-family:'Montserrat-Regular'; font-size:10px;" x="21.21" y="0"/><tspan style="font-family:'Montserrat-Regular'; font-size:10px;" x="28.78" y="0"/></text><text transform="matrix(1 0 0 1 199.4355 -117.0002)"><tspan style="font-family:'Montserrat-Regular'; font-size:10px;" x="0" y="0"/><tspan style="font-family:'Montserrat-Regular'; font-size:10px;" x="0.465" y="12"/><tspan style="font-family:'Montserrat-Regular'; font-size:10px;" x="5.865" y="12"/></text><text transform="matrix(1 0 0 1 297.75 -117.0002)"><tspan style="font-family:'Montserrat-Regular'; font-size:10px;" x="0" y="0"/><tspan style="font-family:'Montserrat-Regular'; font-size:10px;" x="23.25" y="0"/><tspan style="font-family:'Montserrat-Regular'; font-size:10px;" x="30.45" y="0"/></text><text transform="matrix(1 0 0 1 -170.77 -21.0002)"><tspan style="font-family:'Montserrat-Regular'; font-size:10px;" x="0" y="0"/><tspan style="font-family:'Montserrat-Regular'; font-size:10px;" x="-16.564" y="12"/></text><text transform="matrix(1 0 0 1 -3.9497 -21.0002)"><tspan style="font-family:'Montserrat-Regular'; font-size:10px;" x="0" y="0"/><tspan style="font-family:'Montserrat-Regular'; font-size:10px;" x="36.759" y="0"/><tspan style="font-family:'Montserrat-Regular'; font-size:10px;" x="43.959" y="0"/></text><text transform="matrix(1 0 0 1 117.25 -21.0002)"><tspan style="font-family:'Montserrat-Regular'; font-size:10px;" x="0" y="0"/><tspan style="font-family:'Montserrat-Regular'; font-size:10px;" x="7.06" y="0"/><tspan style="font-family:'Montserrat-Regular'; font-size:10px;" x="15.13" y="0"/></text><text style="font-family:'Montserrat-Regular'; font-size:10px;" transform="matrix(1 0 0 1 212.46 -21.0002)"/><text transform="matrix(1 0 0 1 309.6152 -21.0002)"><tspan style="font-family:'Montserrat-Regular'; font-size:10px;" x="0" y="0"/><tspan style="font-family:'Montserrat-Regular'; font-size:10px;" x="5.47" y="0"/></text><text transform="matrix(1 0 0 1 -182.8447 74.9998)"><tspan style="font-family:'Montserrat-Regular'; font-size:10px;" x="0" y="0"/><tspan style="font-family:'Montserrat-Regular'; font-size:10px;" x="14.98" y="0"/><tspan style="font-family:'Montserrat-Regular'; font-size:10px;" x="22.18" y="0"/><tspan style="font-family:'Montserrat-Regular'; font-size:10px;" x="4.645" y="12"/><tspan style="font-family:'Montserrat-Regular'; font-size:10px;" x="12.215" y="12"/></text><text transform="matrix(1 0 0 1 -84.585 74.9998)"><tspan style="font-family:'Montserrat-Regular'; font-size:10px;" x="0" y="0"/><tspan style="font-family:'Montserrat-Regular'; font-size:10px;" x="6.29" y="0"/><tspan style="font-family:'Montserrat-Regular'; font-size:10px;" x="-4.495" y="12"/></text><text transform="matrix(1 0 0 1 7.5254 74.9998)"><tspan style="font-family:'Montserrat-Regular'; font-size:10px;" x="0" y="0"/><tspan style="font-family:'Montserrat-Regular'; font-size:10px;" x="7.23" y="0"/><tspan style="font-family:'Montserrat-Regular'; font-size:10px;" x="15.05" y="0"/></text><text transform="matrix(1 0 0 1 103.2451 74.9998)"><tspan style="font-family:'Montserrat-Regular'; font-size:10px;" x="0" y="0"/><tspan style="font-family:'Montserrat-Regular'; font-size:10px;" x="13.445" y="12"/></text><text transform="matrix(1 0 0 1 207.3799 74.9998)"><tspan style="font-family:'Montserrat-Regular'; font-size:10px;" x="0" y="0"/><tspan style="font-family:'Montserrat-Regular'; font-size:10px;" x="6.22" y="0"/><tspan style="font-family:'Montserrat-Regular'; font-size:10px;" x="12.51" y="0"/><tspan style="font-family:'Montserrat-Regular'; font-size:10px;" x="19.71" y="0"/><tspan style="font-family:'Montserrat-Regular'; font-size:10px;" x="-6.004" y="12"/></text><text transform="matrix(1 0 0 1 303.4551 74.9998)"><tspan style="font-family:'Montserrat-Regular'; font-size:10px;" x="0" y="0"/><tspan style="font-family:'Montserrat-Regular'; font-size:10px;" x="9.25" y="0"/><tspan style="font-family:'Montserrat-Regular'; font-size:10px;" x="17.07" y="0"/></text><text transform="matrix(1 0 0 1 -179.8896 170.9998)"><tspan style="font-family:'Montserrat-Regular'; font-size:10px;" x="0" y="0"/><tspan style="font-family:'Montserrat-Regular'; font-size:10px;" x="6.73" y="0"/><tspan style="font-family:'Montserrat-Regular'; font-size:10px;" x="12.13" y="0"/><tspan style="font-family:'Montserrat-Regular'; font-size:10px;" x="1.18" y="12"/></text><text style="font-family:'Montserrat-Regular'; font-size:10px;" transform="matrix(1 0 0 1 -81.4346 170.9998)"/><text transform="matrix(1 0 0 1 14.835 170.9998)"><tspan style="font-family:'Montserrat-Regular'; font-size:10px;" x="0" y="0"/><tspan style="font-family:'Montserrat-Regular'; font-size:10px;" x="14.32" y="0"/><tspan style="font-family:'Montserrat-Regular'; font-size:10px;" x="19.72" y="0"/><tspan style="font-family:'Montserrat-Regular'; font-size:10px;" x="-3.04" y="12"/></text><text transform="matrix(1 0 0 1 116.6099 170.9998)"><tspan style="font-family:'Montserrat-Regular'; font-size:10px;" x="0" y="0"/><tspan style="font-family:'Montserrat-Regular'; font-size:10px;" x="15.29" y="0"/></text><text transform="matrix(1 0 0 1 214.2998 170.9998)"><tspan style="font-family:'Montserrat-Regular'; font-size:10px;" x="0" y="0"/><tspan style="font-family:'Montserrat-Regular'; font-size:10px;" x="6.92" y="0"/><tspan style="font-family:'Montserrat-Regular'; font-size:10px;" x="13.61" y="0"/></text><text transform="matrix(1 0 0 1 304.8901 170.9998)"><tspan style="font-family:'Montserrat-Regular'; font-size:10px;" x="0" y="0"/><tspan style="font-family:'Montserrat-Regular'; font-size:10px;" x="-3.875" y="12"/></text><text style="font-family:'Montserrat-Regular'; font-size:10px;" transform="matrix(1 0 0 1 -185.5347 266.9998)"/><text transform="matrix(1 0 0 1 -95.5947 266.9998)"><tspan style="font-family:'Montserrat-Regular'; font-size:10px;" x="0" y="0"/><tspan style="font-family:'Montserrat-Regular'; font-size:10px;" x="7.32" y="0"/><tspan style="font-family:'Montserrat-Regular'; font-size:10px;" x="42.58" y="0"/><tspan style="font-family:'Montserrat-Regular'; font-size:10px;" x="49.76" y="0"/></text><text transform="matrix(1 0 0 1 -5.5649 266.9998)"><tspan style="font-family:'Montserrat-Regular'; font-size:10px;" x="0" y="0"/><tspan style="font-family:'Montserrat-Regular'; font-size:10px;" x="21.17" y="0"/><tspan style="font-family:'Montserrat-Regular'; font-size:10px;" x="28.89" y="0"/><tspan style="font-family:'Montserrat-Regular'; font-size:10px;" x="38.939" y="0"/><tspan style="font-family:'Montserrat-Regular'; font-size:10px;" x="44.31" y="0"/><tspan style="font-family:'Montserrat-Regular'; font-size:10px;" x="62.649" y="0"/><tspan style="font-family:'Montserrat-Regular'; font-size:10px;" x="69.339" y="0"/><tspan style="font-family:'Montserrat-Regular'; font-size:10px;" x="22.855" y="12"/><tspan style="font-family:'Montserrat-Regular'; font-size:10px;" x="28.605" y="12"/><tspan style="font-family:'Montserrat-Regular'; font-size:10px;" x="36.425" y="12"/></text><text style="font-family:'Montserrat-Regular'; font-size:10px;" transform="matrix(1 0 0 1 117.2549 266.9998)"/><text transform="matrix(1 0 0 1 196.6655 266.9998)"><tspan style="font-family:'Montserrat-Regular'; font-size:10px;" x="0" y="0"/><tspan style="font-family:'Montserrat-Regular'; font-size:10px;" x="9.265" y="12"/><tspan style="font-family:'Montserrat-Regular'; font-size:10px;" x="31.654" y="12"/><tspan style="font-family:'Montserrat-Regular'; font-size:10px;" x="39.615" y="12"/></text><text style="font-family:'Montserrat-Regular'; font-size:10px;" transform="matrix(1 0 0 1 301.2202 266.9998)"/><text transform="matrix(1 0 0 1 -194.2148 362.9998)"><tspan style="font-family:'Montserrat-Regular'; font-size:10px;" x="0" y="0"/><tspan style="font-family:'Montserrat-Regular'; font-size:10px;" x="6.82" y="0"/></text><text style="font-family:'Montserrat-Regular'; font-size:10px;" transform="matrix(1 0 0 1 -75.5249 362.9998)"/><text transform="matrix(1 0 0 1 15.3799 362.9998)"><tspan style="font-family:'Montserrat-Regular'; font-size:10px;" x="0" y="0"/><tspan style="font-family:'Montserrat-Regular'; font-size:10px;" x="6.22" y="0"/><tspan style="font-family:'Montserrat-Regular'; font-size:10px;" x="12.51" y="0"/><tspan style="font-family:'Montserrat-Regular'; font-size:10px;" x="19.71" y="0"/><tspan style="font-family:'Montserrat-Regular'; font-size:10px;" x="-21.344" y="12"/><tspan style="font-family:'Montserrat-Regular'; font-size:10px;" x="-8.994" y="12"/><tspan style="font-family:'Montserrat-Regular'; font-size:10px;" x="-2.104" y="12"/></text><text transform="matrix(1 0 0 1 111.3799 362.9998)"><tspan style="font-family:'Montserrat-Regular'; font-size:10px;" x="0" y="0"/><tspan style="font-family:'Montserrat-Regular'; font-size:10px;" x="6.22" y="0"/><tspan style="font-family:'Montserrat-Regular'; font-size:10px;" x="12.51" y="0"/><tspan style="font-family:'Montserrat-Regular'; font-size:10px;" x="19.71" y="0"/><tspan style="font-family:'Montserrat-Regular'; font-size:10px;" x="-0.16" y="12"/><tspan style="font-family:'Montserrat-Regular'; font-size:10px;" x="7.75" y="12"/><tspan style="font-family:'Montserrat-Regular'; font-size:10px;" x="15.71" y="12"/></text><text transform="matrix(1 0 0 1 207.3799 362.9998)"><tspan style="font-family:'Montserrat-Regular'; font-size:10px;" x="0" y="0"/><tspan style="font-family:'Montserrat-Regular'; font-size:10px;" x="6.22" y="0"/><tspan style="font-family:'Montserrat-Regular'; font-size:10px;" x="12.51" y="0"/><tspan style="font-family:'Montserrat-Regular'; font-size:10px;" x="19.71" y="0"/><tspan style="font-family:'Montserrat-Regular'; font-size:10px;" x="-8.28" y="12"/><tspan style="font-family:'Montserrat-Regular'; font-size:10px;" x="23.7" y="12"/><tspan style="font-family:'Montserrat-Regular'; font-size:10px;" x="28.8" y="12"/></text><text transform="matrix(1 0 0 1 303.3799 362.9998)"><tspan style="font-family:'Montserrat-Regular'; font-size:10px;" x="0" y="0"/><tspan style="font-family:'Montserrat-Regular'; font-size:10px;" x="6.22" y="0"/><tspan style="font-family:'Montserrat-Regular'; font-size:10px;" x="12.51" y="0"/><tspan style="font-family:'Montserrat-Regular'; font-size:10px;" x="19.71" y="0"/><tspan style="font-family:'Montserrat-Regular'; font-size:10px;" x="5.855" y="12"/><tspan style="font-family:'Montserrat-Regular'; font-size:10px;" x="12.775" y="12"/></text></g><g/><path d="M57.981,15.626c-0.056-1.061-0.342-2.061-0.82-2.946l2.788-8.364c0.132-0.397,0.003-0.834-0.323-1.097  c-0.326-0.261-0.782-0.294-1.14-0.077l-4.227,2.536L51.8,2.4c-0.377-0.504-1.223-0.504-1.6,0l-2.459,3.279l-4.227-2.536  c-0.358-0.215-0.814-0.183-1.14,0.077c-0.327,0.262-0.456,0.7-0.323,1.097l2.788,8.364C44.304,13.669,44,14.799,44,16v12H25.949  c-0.001-0.007,0-0.014-0.001-0.021C25.427,21.839,20.272,17,14,17C7.383,17,2,22.383,2,29c0,0.552,0.448,1,1,1h4h4h5.051  c0.012,0.177,0.009,0.357,0.027,0.532C16.692,38.983,22.319,46.047,30,48.775V60h-3v2h8h4h8v-2h-7V49.76  C50.16,48.297,58,39.558,58,29v-7h3c0.384,0,0.735-0.22,0.901-0.567c0.167-0.346,0.12-0.758-0.121-1.058L57.981,15.626z   M47.485,7.857C47.924,8.12,48.492,8.01,48.8,7.6L51,4.667L53.2,7.6c0.308,0.41,0.875,0.52,1.314,0.257l2.682-1.609l-1.519,4.558  C54.436,9.688,52.799,9,51,9s-3.436,0.688-4.677,1.807l-1.519-4.558L47.485,7.857z M18.038,30H25h18.962  C43.45,36.703,37.832,42,31,42S18.55,36.703,18.038,30z M14,19c0.336,0,0.668,0.018,0.995,0.051C10.28,19.523,6.521,23.284,6.051,28  H4.05C4.553,22.954,8.824,19,14,19z M16,21c0.339,0,0.67,0.029,0.998,0.07c-3.611,0.454-6.475,3.319-6.929,6.93H8.062  C8.556,24.059,11.928,21,16,21z M18,23c2.968,0,5.439,2.166,5.917,5H17h-4.917C12.561,25.166,15.032,23,18,23z M38,60h-3h-3V49.373  C33.606,49.768,35.274,50,37,50c0.338,0,0.666-0.035,1-0.051V60z M56,29c0,10.477-8.523,19-19,19c-5.709,0-10.837-2.531-14.323-6.53  C25.06,43.066,27.923,44,31,44c8.271,0,15-6.729,15-15V16c0-2.757,2.243-5,5-5s5,2.243,5,5V29z M58,20v-1.149L58.919,20H58z"/><rect height="2" width="2" x="52" y="16"/></svg>